<svg width="227" height="82" viewBox="0 0 227 82" fill="none" xmlns="http://www.w3.org/2000/svg">
<path d="M-3.09944e-05 34.7041V1.7761H5.37597V15.5521H22.08V1.7761H27.456V34.7041H22.08V20.1601H5.37597V34.7041H-3.09944e-05ZM40.002 35.2801C39.202 35.2801 38.338 35.1841 37.41 34.9921C36.482 34.8001 35.602 34.4481 34.77 33.9361C33.97 33.4241 33.314 32.7201 32.802 31.8241C32.29 30.8961 32.034 29.6961 32.034 28.2241C32.034 26.4961 32.434 25.0721 33.234 23.9521C34.034 22.8321 35.154 21.9521 36.594 21.3121C38.034 20.6721 39.746 20.2241 41.73 19.9681C43.746 19.7121 45.938 19.5841 48.306 19.5841V17.0881C48.306 16.2561 48.162 15.5201 47.874 14.8801C47.618 14.2401 47.122 13.7441 46.386 13.3921C45.682 13.0401 44.658 12.8641 43.314 12.8641C41.97 12.8641 40.914 13.0401 40.146 13.3921C39.41 13.7121 38.882 14.1281 38.562 14.6401C38.274 15.1201 38.13 15.6481 38.13 16.2241V16.9441H33.33C33.298 16.7841 33.282 16.6241 33.282 16.4641C33.282 16.3041 33.282 16.1121 33.282 15.8881C33.282 14.3841 33.698 13.1201 34.53 12.0961C35.394 11.0401 36.594 10.2401 38.13 9.6961C39.666 9.1521 41.442 8.8801 43.458 8.8801C45.634 8.8801 47.442 9.2001 48.882 9.8401C50.354 10.4481 51.458 11.3281 52.194 12.4801C52.93 13.6321 53.298 15.0241 53.298 16.6561V29.4721C53.298 30.0801 53.442 30.5121 53.73 30.7681C54.05 31.0241 54.418 31.1521 54.834 31.1521H56.562V34.5121C56.178 34.6721 55.698 34.8321 55.122 34.9921C54.546 35.1521 53.874 35.2321 53.106 35.2321C52.242 35.2321 51.506 35.0721 50.898 34.7521C50.322 34.4641 49.842 34.0481 49.458 33.5041C49.106 32.9281 48.866 32.2881 48.738 31.5841H48.45C47.874 32.3201 47.17 32.9761 46.338 33.5521C45.538 34.0961 44.61 34.5121 43.554 34.8001C42.498 35.1201 41.314 35.2801 40.002 35.2801ZM41.394 31.1521C42.386 31.1521 43.298 31.0081 44.13 30.7201C44.994 30.4001 45.73 29.9681 46.338 29.4241C46.946 28.8481 47.426 28.1761 47.778 27.4081C48.13 26.6081 48.306 25.7441 48.306 24.8161V23.1361C46.098 23.1361 44.162 23.2641 42.498 23.5201C40.834 23.7761 39.538 24.2561 38.61 24.9601C37.682 25.6321 37.218 26.5761 37.218 27.7921C37.218 28.5281 37.378 29.1521 37.698 29.6641C38.018 30.1441 38.498 30.5121 39.138 30.7681C39.778 31.0241 40.53 31.1521 41.394 31.1521ZM59.0486 34.7041V9.4561H63.1766L63.6086 13.0561H63.9446C64.5526 12.1281 65.2726 11.3601 66.1046 10.7521C66.9366 10.1441 67.8486 9.6801 68.8406 9.3601C69.8646 9.0401 70.9846 8.8801 72.2006 8.8801C73.8006 8.8801 75.2086 9.1681 76.4246 9.7441C77.6406 10.2881 78.5846 11.1841 79.2566 12.4321C79.9606 13.6801 80.3126 15.3601 80.3126 17.4721V34.7041H75.3206V18.2401C75.3206 17.2801 75.1926 16.4801 74.9366 15.8401C74.7126 15.2001 74.3766 14.6881 73.9286 14.3041C73.4806 13.9201 72.9526 13.6481 72.3446 13.4881C71.7366 13.3281 71.0646 13.2481 70.3286 13.2481C69.1766 13.2481 68.1206 13.5361 67.1606 14.1121C66.2326 14.6561 65.4806 15.4241 64.9046 16.4161C64.3286 17.4081 64.0406 18.5761 64.0406 19.9201V34.7041H59.0486ZM94.2922 35.2801C92.2442 35.2801 90.4682 34.8161 88.9642 33.8881C87.4602 32.9601 86.2922 31.5201 85.4602 29.5681C84.6602 27.6161 84.2602 25.0881 84.2602 21.9841C84.2602 18.9441 84.6762 16.4641 85.5082 14.5441C86.3402 12.6241 87.4922 11.2001 88.9642 10.2721C90.4362 9.3441 92.1322 8.8801 94.0522 8.8801C95.1722 8.8801 96.2122 9.0081 97.1722 9.2641C98.1322 9.5201 98.9802 9.9201 99.7162 10.4641C100.484 11.0081 101.124 11.6961 101.636 12.5281H101.972V9.91821e-05H106.964V34.7041H102.884L102.404 31.2481H102.068C101.236 32.5921 100.132 33.6001 98.7562 34.2721C97.4122 34.9441 95.9242 35.2801 94.2922 35.2801ZM95.6842 30.9601C97.1562 30.9601 98.3402 30.6401 99.2362 30.0001C100.164 29.3281 100.852 28.3681 101.3 27.1201C101.748 25.8401 101.972 24.2881 101.972 22.4641V21.7921C101.972 20.2561 101.828 18.9441 101.54 17.8561C101.252 16.7681 100.836 15.8881 100.292 15.2161C99.7482 14.5121 99.0922 14.0001 98.3242 13.6801C97.5562 13.3601 96.6922 13.2001 95.7322 13.2001C94.2602 13.2001 93.0602 13.5041 92.1322 14.1121C91.2042 14.6881 90.5162 15.6001 90.0682 16.8481C89.6522 18.0961 89.4442 19.7121 89.4442 21.6961V22.5601C89.4442 24.5441 89.6682 26.1601 90.1162 27.4081C90.5642 28.6241 91.2362 29.5201 92.1322 30.0961C93.0602 30.6721 94.2442 30.9601 95.6842 30.9601ZM112.441 34.7041V9.4561H116.569L117.001 13.0561H117.337C117.913 12.1281 118.569 11.3601 119.305 10.7521C120.073 10.1441 120.921 9.6801 121.849 9.3601C122.809 9.0401 123.833 8.8801 124.921 8.8801C126.489 8.8801 127.849 9.2001 129.001 9.8401C130.185 10.4801 131.081 11.5521 131.689 13.0561H132.025C132.601 12.1601 133.273 11.4081 134.041 10.8001C134.809 10.1601 135.673 9.6801 136.633 9.3601C137.625 9.0401 138.681 8.8801 139.801 8.8801C141.305 8.8801 142.633 9.1521 143.785 9.6961C144.937 10.2081 145.849 11.0881 146.521 12.3361C147.193 13.5521 147.529 15.1841 147.529 17.2321V34.7041H142.537V18.1441C142.537 17.1841 142.425 16.4001 142.201 15.7921C141.977 15.1521 141.673 14.6561 141.289 14.3041C140.905 13.9201 140.441 13.6481 139.897 13.4881C139.353 13.3281 138.761 13.2481 138.121 13.2481C137.065 13.2481 136.121 13.5361 135.289 14.1121C134.457 14.6561 133.785 15.4241 133.273 16.4161C132.761 17.4081 132.505 18.5761 132.505 19.9201V34.7041H127.513V18.1441C127.513 17.1841 127.401 16.4001 127.177 15.7921C126.953 15.1521 126.649 14.6561 126.265 14.3041C125.881 13.9201 125.417 13.6481 124.873 13.4881C124.329 13.3281 123.753 13.2481 123.145 13.2481C122.089 13.2481 121.129 13.5361 120.265 14.1121C119.401 14.6561 118.713 15.4241 118.201 16.4161C117.689 17.4081 117.433 18.5761 117.433 19.9201V34.7041H112.441ZM159.162 35.2801C158.362 35.2801 157.498 35.1841 156.57 34.9921C155.642 34.8001 154.762 34.4481 153.93 33.9361C153.13 33.4241 152.474 32.7201 151.962 31.8241C151.45 30.8961 151.194 29.6961 151.194 28.2241C151.194 26.4961 151.594 25.0721 152.394 23.9521C153.194 22.8321 154.314 21.9521 155.754 21.3121C157.194 20.6721 158.906 20.2241 160.89 19.9681C162.906 19.7121 165.098 19.5841 167.466 19.5841V17.0881C167.466 16.2561 167.322 15.5201 167.034 14.8801C166.778 14.2401 166.282 13.7441 165.546 13.3921C164.842 13.0401 163.818 12.8641 162.474 12.8641C161.13 12.8641 160.074 13.0401 159.306 13.3921C158.57 13.7121 158.042 14.1281 157.722 14.6401C157.434 15.1201 157.29 15.6481 157.29 16.2241V16.9441H152.49C152.458 16.7841 152.442 16.6241 152.442 16.4641C152.442 16.3041 152.442 16.1121 152.442 15.8881C152.442 14.3841 152.858 13.1201 153.69 12.0961C154.554 11.0401 155.754 10.2401 157.29 9.6961C158.826 9.1521 160.602 8.8801 162.618 8.8801C164.794 8.8801 166.602 9.2001 168.042 9.8401C169.514 10.4481 170.618 11.3281 171.354 12.4801C172.09 13.6321 172.458 15.0241 172.458 16.6561V29.4721C172.458 30.0801 172.602 30.5121 172.89 30.7681C173.21 31.0241 173.578 31.1521 173.994 31.1521H175.722V34.5121C175.338 34.6721 174.858 34.8321 174.282 34.9921C173.706 35.1521 173.034 35.2321 172.266 35.2321C171.402 35.2321 170.666 35.0721 170.058 34.7521C169.482 34.4641 169.002 34.0481 168.618 33.5041C168.266 32.9281 168.026 32.2881 167.898 31.5841H167.61C167.034 32.3201 166.33 32.9761 165.498 33.5521C164.698 34.0961 163.77 34.5121 162.714 34.8001C161.658 35.1201 160.474 35.2801 159.162 35.2801ZM160.554 31.1521C161.546 31.1521 162.458 31.0081 163.29 30.7201C164.154 30.4001 164.89 29.9681 165.498 29.4241C166.106 28.8481 166.586 28.1761 166.938 27.4081C167.29 26.6081 167.466 25.7441 167.466 24.8161V23.1361C165.258 23.1361 163.322 23.2641 161.658 23.5201C159.994 23.7761 158.698 24.2561 157.77 24.9601C156.842 25.6321 156.378 26.5761 156.378 27.7921C156.378 28.5281 156.538 29.1521 156.858 29.6641C157.178 30.1441 157.658 30.5121 158.298 30.7681C158.938 31.0241 159.69 31.1521 160.554 31.1521ZM186.897 35.2801C184.849 35.2801 183.073 34.8161 181.569 33.8881C180.065 32.9601 178.897 31.5201 178.065 29.5681C177.265 27.6161 176.865 25.0881 176.865 21.9841C176.865 18.9441 177.281 16.4641 178.113 14.5441C178.945 12.6241 180.097 11.2001 181.569 10.2721C183.041 9.3441 184.737 8.8801 186.657 8.8801C187.777 8.8801 188.817 9.0081 189.777 9.2641C190.737 9.5201 191.585 9.9201 192.321 10.4641C193.089 11.0081 193.729 11.6961 194.241 12.5281H194.577V9.91821e-05H199.569V34.7041H195.489L195.009 31.2481H194.673C193.841 32.5921 192.737 33.6001 191.361 34.2721C190.017 34.9441 188.529 35.2801 186.897 35.2801ZM188.289 30.9601C189.761 30.9601 190.945 30.6401 191.841 30.0001C192.769 29.3281 193.457 28.3681 193.905 27.1201C194.353 25.8401 194.577 24.2881 194.577 22.4641V21.7921C194.577 20.2561 194.433 18.9441 194.145 17.8561C193.857 16.7681 193.441 15.8881 192.897 15.2161C192.353 14.5121 191.697 14.0001 190.929 13.6801C190.161 13.3601 189.297 13.2001 188.337 13.2001C186.865 13.2001 185.665 13.5041 184.737 14.1121C183.809 14.6881 183.121 15.6001 182.673 16.8481C182.257 18.0961 182.049 19.7121 182.049 21.6961V22.5601C182.049 24.5441 182.273 26.1601 182.721 27.4081C183.169 28.6241 183.841 29.5201 184.737 30.0961C185.665 30.6721 186.849 30.9601 188.289 30.9601ZM215.509 35.2801C212.917 35.2801 210.741 34.8161 208.981 33.8881C207.253 32.9281 205.941 31.4721 205.045 29.5201C204.149 27.5681 203.701 25.0881 203.701 22.0801C203.701 19.0401 204.149 16.5601 205.045 14.6401C205.941 12.6881 207.269 11.2481 209.029 10.3201C210.789 9.3601 212.981 8.8801 215.605 8.8801C218.005 8.8801 220.005 9.3441 221.605 10.2721C223.237 11.1681 224.469 12.5441 225.301 14.4001C226.133 16.2561 226.549 18.5921 226.549 21.4081V23.3281H208.837C208.901 25.1201 209.173 26.6241 209.653 27.8401C210.133 29.0241 210.853 29.9041 211.813 30.4801C212.805 31.0241 214.053 31.2961 215.557 31.2961C216.485 31.2961 217.317 31.1841 218.053 30.9601C218.789 30.7041 219.413 30.3521 219.925 29.9041C220.437 29.4241 220.837 28.8641 221.125 28.2241C221.413 27.5521 221.557 26.8001 221.557 25.9681H226.453C226.453 27.4721 226.197 28.8001 225.685 29.9521C225.173 31.1041 224.421 32.0801 223.429 32.8801C222.469 33.6481 221.317 34.2401 219.973 34.6561C218.629 35.0721 217.141 35.2801 215.509 35.2801ZM208.933 19.6801H221.317C221.317 18.4321 221.173 17.3921 220.885 16.5601C220.629 15.6961 220.245 14.9921 219.733 14.4481C219.221 13.9041 218.613 13.5201 217.909 13.2961C217.205 13.0401 216.405 12.9121 215.509 12.9121C214.165 12.9121 213.013 13.1521 212.053 13.6321C211.125 14.1121 210.405 14.8641 209.893 15.8881C209.381 16.8801 209.061 18.1441 208.933 19.6801ZM29.3983 51.0881V46.0001H34.3903V51.0881H29.3983ZM29.3983 80.7041V55.4561H34.3903V80.7041H29.3983ZM39.8758 80.7041V55.4561H44.0038L44.4358 59.0561H44.7718C45.3798 58.1281 46.0998 57.3601 46.9318 56.7521C47.7638 56.1441 48.6758 55.6801 49.6678 55.3601C50.6918 55.0401 51.8118 54.8801 53.0278 54.8801C54.6278 54.8801 56.0358 55.1681 57.2518 55.7441C58.4678 56.2881 59.4118 57.1841 60.0838 58.4321C60.7878 59.6801 61.1398 61.3601 61.1398 63.4721V80.7041H56.1478V64.2401C56.1478 63.2801 56.0198 62.4801 55.7638 61.8401C55.5398 61.2001 55.2038 60.6881 54.7558 60.3041C54.3078 59.9201 53.7798 59.6481 53.1718 59.4881C52.5638 59.3281 51.8918 59.2481 51.1558 59.2481C50.0038 59.2481 48.9478 59.5361 47.9878 60.1121C47.0598 60.6561 46.3078 61.4241 45.7318 62.4161C45.1558 63.4081 44.8678 64.5761 44.8678 65.9201V80.7041H39.8758ZM75.9872 80.7041V47.7761H81.3632V76.0481H97.7792V80.7041H75.9872ZM107.224 81.2801C106.424 81.2801 105.56 81.1841 104.632 80.9921C103.704 80.8001 102.824 80.4481 101.992 79.9361C101.192 79.4241 100.536 78.7201 100.024 77.8241C99.5115 76.8961 99.2555 75.6961 99.2555 74.2241C99.2555 72.4961 99.6555 71.0721 100.456 69.9521C101.256 68.8321 102.376 67.9521 103.816 67.3121C105.256 66.6721 106.968 66.2241 108.952 65.9681C110.968 65.7121 113.16 65.5841 115.528 65.5841V63.0881C115.528 62.2561 115.384 61.5201 115.096 60.8801C114.84 60.2401 114.344 59.7441 113.608 59.3921C112.904 59.0401 111.88 58.8641 110.536 58.8641C109.192 58.8641 108.136 59.0401 107.368 59.3921C106.632 59.7121 106.104 60.1281 105.784 60.6401C105.496 61.1201 105.352 61.6481 105.352 62.2241V62.9441H100.552C100.52 62.7841 100.504 62.6241 100.504 62.4641C100.504 62.3041 100.504 62.1121 100.504 61.8881C100.504 60.3841 100.92 59.1201 101.752 58.0961C102.616 57.0401 103.816 56.2401 105.352 55.6961C106.888 55.1521 108.664 54.8801 110.68 54.8801C112.856 54.8801 114.664 55.2001 116.104 55.8401C117.576 56.4481 118.68 57.3281 119.416 58.4801C120.152 59.6321 120.52 61.0241 120.52 62.6561V75.4721C120.52 76.0801 120.664 76.5121 120.952 76.7681C121.272 77.0241 121.64 77.1521 122.056 77.1521H123.784V80.5121C123.4 80.6721 122.92 80.8321 122.344 80.9921C121.768 81.1521 121.096 81.2321 120.328 81.2321C119.464 81.2321 118.728 81.0721 118.12 80.7521C117.544 80.4641 117.064 80.0481 116.68 79.5041C116.328 78.9281 116.088 78.2881 115.96 77.5841H115.672C115.096 78.3201 114.392 78.9761 113.56 79.5521C112.76 80.0961 111.832 80.5121 110.776 80.8001C109.72 81.1201 108.536 81.2801 107.224 81.2801ZM108.616 77.1521C109.608 77.1521 110.52 77.0081 111.352 76.7201C112.216 76.4001 112.952 75.9681 113.56 75.4241C114.168 74.8481 114.648 74.1761 115 73.4081C115.352 72.6081 115.528 71.7441 115.528 70.8161V69.1361C113.32 69.1361 111.384 69.2641 109.72 69.5201C108.056 69.7761 106.76 70.2561 105.832 70.9601C104.904 71.6321 104.44 72.5761 104.44 73.7921C104.44 74.5281 104.6 75.1521 104.92 75.6641C105.24 76.1441 105.72 76.5121 106.36 76.7681C107 77.0241 107.752 77.1521 108.616 77.1521ZM132.558 81.2801C131.118 81.2801 129.982 81.0081 129.15 80.4641C128.35 79.8881 127.774 79.1681 127.422 78.3041C127.102 77.4081 126.942 76.4641 126.942 75.4721V59.5841H123.774V55.4561H127.038L127.95 48.4001H131.934V55.4561H136.494V59.5841H131.934V74.8961C131.934 75.6321 132.094 76.1921 132.414 76.5761C132.734 76.9601 133.262 77.1521 133.998 77.1521H136.494V80.5121C136.174 80.6401 135.774 80.7521 135.294 80.8481C134.846 80.9761 134.382 81.0721 133.902 81.1361C133.422 81.2321 132.974 81.2801 132.558 81.2801ZM146.511 80.7041L137.151 55.4561H142.383L146.751 67.5041C146.943 68.0801 147.183 68.8321 147.471 69.7601C147.759 70.6561 148.047 71.5841 148.335 72.5441C148.623 73.5041 148.879 74.3681 149.103 75.1361H149.343C149.535 74.4001 149.759 73.5681 150.015 72.6401C150.303 71.6801 150.591 70.7361 150.879 69.8081C151.167 68.8801 151.423 68.1121 151.647 67.5041L155.967 55.4561H161.055L151.647 80.7041H146.511ZM163.725 51.0881V46.0001H168.717V51.0881H163.725ZM163.725 80.7041V55.4561H168.717V80.7041H163.725ZM180.587 81.2801C179.787 81.2801 178.923 81.1841 177.995 80.9921C177.067 80.8001 176.187 80.4481 175.355 79.9361C174.555 79.4241 173.899 78.7201 173.387 77.8241C172.875 76.8961 172.619 75.6961 172.619 74.2241C172.619 72.4961 173.019 71.0721 173.819 69.9521C174.619 68.8321 175.739 67.9521 177.179 67.3121C178.619 66.6721 180.331 66.2241 182.315 65.9681C184.331 65.7121 186.523 65.5841 188.891 65.5841V63.0881C188.891 62.2561 188.747 61.5201 188.459 60.8801C188.203 60.2401 187.707 59.7441 186.971 59.3921C186.267 59.0401 185.243 58.8641 183.899 58.8641C182.555 58.8641 181.499 59.0401 180.731 59.3921C179.995 59.7121 179.467 60.1281 179.147 60.6401C178.859 61.1201 178.715 61.6481 178.715 62.2241V62.9441H173.915C173.883 62.7841 173.867 62.6241 173.867 62.4641C173.867 62.3041 173.867 62.1121 173.867 61.8881C173.867 60.3841 174.283 59.1201 175.115 58.0961C175.979 57.0401 177.179 56.2401 178.715 55.6961C180.251 55.1521 182.027 54.8801 184.043 54.8801C186.219 54.8801 188.027 55.2001 189.467 55.8401C190.939 56.4481 192.043 57.3281 192.779 58.4801C193.515 59.6321 193.883 61.0241 193.883 62.6561V75.4721C193.883 76.0801 194.027 76.5121 194.315 76.7681C194.635 77.0241 195.003 77.1521 195.419 77.1521H197.147V80.5121C196.763 80.6721 196.283 80.8321 195.707 80.9921C195.131 81.1521 194.459 81.2321 193.691 81.2321C192.827 81.2321 192.091 81.0721 191.483 80.7521C190.907 80.4641 190.427 80.0481 190.043 79.5041C189.691 78.9281 189.451 78.2881 189.323 77.5841H189.035C188.459 78.3201 187.755 78.9761 186.923 79.5521C186.123 80.0961 185.195 80.5121 184.139 80.8001C183.083 81.1201 181.899 81.2801 180.587 81.2801ZM181.979 77.1521C182.971 77.1521 183.883 77.0081 184.715 76.7201C185.579 76.4001 186.315 75.9681 186.923 75.4241C187.531 74.8481 188.011 74.1761 188.363 73.4081C188.715 72.6081 188.891 71.7441 188.891 70.8161V69.1361C186.683 69.1361 184.747 69.2641 183.083 69.5201C181.419 69.7761 180.123 70.2561 179.195 70.9601C178.267 71.6321 177.803 72.5761 177.803 73.7921C177.803 74.5281 177.963 75.1521 178.283 75.6641C178.603 76.1441 179.083 76.5121 179.723 76.7681C180.363 77.0241 181.115 77.1521 181.979 77.1521Z" fill="#27221A"/>
</svg>
