<svg preserveAspectRatio="none" width="100%" height="100%" overflow="visible" style="display: block;" viewBox="0 0 36 36" fill="none" xmlns="http://www.w3.org/2000/svg">
<g id="iconoir:flower" opacity="0.2">
<path id="Vector" d="M26.6167 12.5093C27.6462 13.0486 28.4268 13.9887 28.7872 15.1231C28.9638 15.6838 29.0315 16.2752 28.9865 16.8632C28.9414 17.4512 28.7844 18.0241 28.5245 18.5491C28.2646 19.074 27.907 19.5405 27.4722 19.9218C27.0373 20.3031 26.534 20.5916 25.991 20.7707C25.5995 20.8906 25.1956 20.9613 24.7878 20.9812C25.1036 21.2434 25.3881 21.5437 25.6351 21.8757C26.1432 22.5916 26.4329 23.4484 26.4671 24.336C26.5012 25.2236 26.2782 26.1015 25.8266 26.8569C25.4481 27.4865 24.9265 28.0107 24.3072 28.3837C23.6879 28.7566 22.9898 28.967 22.2739 28.9964C21.5579 29.0258 20.8459 28.8734 20.2 28.5524C19.5541 28.2314 18.994 27.7517 18.5685 27.1551C18.3233 26.8101 18.1312 26.4359 17.9923 26.0325C17.8592 26.4327 17.6708 26.8108 17.4331 27.1551C16.7461 28.1173 15.72 28.7601 14.5778 28.944C13.4355 29.1279 12.2693 28.838 11.3323 28.1373C10.8687 27.7942 10.4755 27.3593 10.1755 26.8577C9.87554 26.3562 9.6748 25.7979 9.58494 25.2154C9.49508 24.6329 9.51789 24.0378 9.65204 23.4645C9.78618 22.8911 10.029 22.3511 10.3664 21.8757C10.6134 21.5437 10.8979 21.2434 11.2137 20.9812C10.8002 20.9627 10.3905 20.892 9.99357 20.7707C9.45168 20.5876 8.94994 20.2958 8.517 19.912C8.08406 19.5282 7.7284 19.0599 7.47033 18.5339C7.21226 18.0078 7.05682 17.4343 7.0129 16.846C6.96898 16.2578 7.03744 15.6664 7.21436 15.1055C7.39128 14.5447 7.67321 14.0254 8.04404 13.5773C8.41486 13.1292 8.86734 12.7611 9.37561 12.494C9.88389 12.2269 10.438 12.066 11.0064 12.0206C11.5747 11.9751 12.1462 12.046 12.6881 12.2291C13.0805 12.3493 13.4523 12.5328 13.7896 12.7728C13.6029 12.0992 13.5699 11.3898 13.6933 10.7008C13.8166 10.0117 14.0929 9.36169 14.5004 8.80199C14.9079 8.24229 15.4354 7.78819 16.0414 7.47548C16.6473 7.16277 17.3152 7 17.9923 7C18.6694 7 19.3373 7.16277 19.9432 7.47548C20.5492 7.78819 21.0767 8.24229 21.4842 8.80199C21.8916 9.36169 22.1679 10.0117 22.2913 10.7008C22.4146 11.3898 22.3817 12.0992 22.195 12.7728C22.5334 12.539 22.9051 12.3614 23.2965 12.2466C24.3932 11.8755 25.5873 11.97 26.6167 12.5093Z" stroke="var(--stroke-0, #FCF6EC)" stroke-linecap="round" stroke-linejoin="round"/>
</g>
</svg>
